# xmcd
#
# Track frame offsets:
#	150
#	4105
#	20787
#	39838
#	57211
#	71293
#	88965
#	108983
#	124351
#	150688
#	162586
#
# Disc length: 2447 seconds
# Revision: 0
# Processed by: cddbd v1.5.2PL0 Copyright (c) Steve Scherf et al.
# Submitted via: dBpowerAMP V12.0
#
DISCID=8d098d0b
DTITLE=Abigail Washburn - City of Refuge
DYEAR=2011
DGENRE=Country
TTITLE0=Prelude
TTITLE1=City of Refuge
TTITLE2=Bring Me My Queen
TTITLE3=Chains
TTITLE4=Ballad of Treason
TTITLE5=Last Train
TTITLE6=Burn Thru
TTITLE7=Corner Girl
TTITLE8=Dreams of Nectar
TTITLE9=Divine Bell
TTITLE10=Bright Morning Stars
EXTD=
EXTT0=
EXTT1=
EXTT2=
EXTT3=
EXTT4=
EXTT5=
EXTT6=
EXTT7=
EXTT8=
EXTT9=
EXTT10=
PLAYORDER=
